<?xml version="1.0" standalone="no"?>
<!DOCTYPE svg PUBLIC "-//W3C//DTD SVG 20010904//EN"
 "http://www.w3.org/TR/2001/REC-SVG-20010904/DTD/svg10.dtd">
<svg version="1.0" xmlns="http://www.w3.org/2000/svg"
 width="460.000000pt" height="460.000000pt" viewBox="0 0 460.000000 460.000000"
 preserveAspectRatio="xMidYMid meet">

<g transform="translate(0.000000,460.000000) scale(0.100000,-0.100000)"
fill="#000000" stroke="none">
<path fill="#ff2a2a" d="M1969 4043 c5 -10 26 -34 46 -53 21 -19 62 -66 93 -105 31 -38 62
-76 70 -84 27 -28 110 -158 144 -226 73 -144 83 -219 44 -333 -45 -131 -70
-164 -283 -377 -112 -111 -203 -208 -203 -215 0 -7 -14 -30 -31 -51 -24 -30
-27 -40 -17 -44 8 -3 15 -12 15 -20 0 -11 -4 -12 -13 -4 -9 7 -15 6 -20 -3
-15 -24 -12 -35 10 -34 11 1 22 -3 23 -9 0 -5 -3 -9 -7 -8 -4 1 -11 -4 -14
-13 -4 -9 -2 -12 5 -8 7 4 10 1 7 -7 -3 -8 -10 -13 -15 -12 -14 3 -9 -35 7
-50 12 -10 12 -9 1 6 -7 9 -9 17 -4 17 5 0 16 11 23 25 7 14 15 23 17 21 3 -2
-3 -16 -12 -30 -12 -18 -13 -26 -5 -26 7 0 10 -7 6 -16 -3 -9 -2 -12 5 -9 5 4
7 15 4 25 -4 13 1 22 14 29 19 11 19 9 9 -19 -7 -22 -7 -38 2 -60 7 -16 9 -34
4 -41 -4 -8 -3 -10 4 -5 7 4 12 14 12 22 0 8 4 13 9 10 5 -4 7 2 4 13 -3 11 2
21 11 24 14 6 15 -3 10 -66 -6 -77 0 -86 15 -21 5 23 9 30 10 17 2 -43 19 -23
29 35 l9 57 2 -50 c1 -27 8 -63 16 -78 8 -16 16 -38 17 -50 2 -12 6 -26 9 -32
4 -5 9 -22 13 -36 6 -28 42 -45 50 -25 2 6 5 3 5 -6 1 -10 6 -18 12 -18 5 0 8
-3 6 -7 -2 -5 4 -16 14 -25 17 -16 18 -16 22 0 2 12 9 6 22 -20 19 -38 43 -54
30 -21 -5 15 -3 15 13 -2 11 -11 17 -24 14 -29 -3 -5 0 -6 6 -2 9 5 9 13 1 28
-8 15 -8 19 0 14 6 -4 20 -24 31 -45 10 -21 27 -41 36 -45 9 -3 14 -13 10 -21
-3 -8 0 -17 6 -21 7 -5 8 -2 3 7 -5 8 5 1 22 -16 41 -41 92 -131 140 -250 69
-169 76 -204 77 -365 0 -139 -1 -150 -37 -272 -40 -139 -81 -243 -151 -390
-51 -106 -87 -208 -61 -174 8 11 15 27 15 35 0 11 3 12 8 4 5 -8 18 4 37 35
16 26 32 49 35 52 10 10 50 69 50 75 0 4 12 32 27 63 14 31 28 78 31 104 2 27
9 51 15 55 5 3 8 2 5 -3 -3 -5 -2 -18 3 -29 7 -17 8 -17 8 8 1 15 5 27 9 27 5
0 14 12 20 26 7 14 16 23 21 20 12 -8 35 40 26 55 -6 8 -4 10 5 4 10 -6 12 -4
7 8 -3 9 0 18 9 21 9 3 15 19 15 38 0 18 1 47 1 63 1 17 -2 44 -6 60 -6 23 -5
26 3 15 9 -11 10 -5 5 25 -3 22 -6 48 -7 58 -1 9 -5 17 -10 17 -5 0 -5 6 1 13
11 13 10 56 -2 76 -4 7 -10 31 -13 54 -2 23 -20 75 -39 115 -20 41 -37 86 -39
100 -2 15 -8 26 -15 24 -6 -1 -9 2 -6 7 7 10 -58 107 -146 220 -345 442 -385
511 -395 675 -5 87 -4 95 27 166 32 72 85 149 104 150 5 0 3 -8 -5 -17 -22
-28 -41 -65 -35 -70 2 -3 12 7 21 21 20 30 41 25 24 -5 -10 -20 -10 -20 14 -4
13 8 32 33 42 55 12 26 25 40 37 40 10 0 18 -5 18 -12 0 -6 3 -8 6 -5 4 4 1
13 -6 22 -7 9 -10 19 -6 22 4 4 12 1 17 -7 8 -11 9 -10 4 8 -4 12 -2 22 4 22
5 0 8 10 6 22 -3 15 -1 18 6 11 8 -8 8 -26 0 -63 -6 -29 -9 -55 -7 -57 9 -9
27 9 22 22 -3 8 2 19 10 26 8 7 13 18 10 26 -3 7 -1 13 4 13 5 0 10 6 13 13 2
6 2 1 0 -13 -1 -14 2 -32 8 -40 10 -13 10 -13 7 0 -3 8 1 60 8 115 l13 100 -4
-95 c-4 -82 -3 -92 9 -71 11 20 14 21 20 6 3 -9 4 -21 1 -25 -3 -5 -1 -11 5
-15 5 -3 10 2 11 12 0 16 1 16 8 -2 6 -16 10 -9 15 28 4 26 5 57 2 70 -3 12
-3 16 0 9 3 -6 10 -10 15 -6 5 3 9 -3 9 -12 0 -13 3 -15 11 -7 8 8 4 39 -16
115 -41 154 -44 168 -35 163 5 -3 18 -33 30 -68 21 -63 56 -132 46 -92 -2 11
-14 44 -25 73 -23 57 -21 69 4 22 9 -17 20 -28 26 -25 5 4 6 13 0 22 -4 9 -6
24 -4 33 3 10 0 21 -6 24 -6 4 -11 12 -11 18 0 6 10 3 22 -8 16 -13 19 -14 10
-3 -7 9 -14 31 -17 48 -4 31 -29 79 -72 137 -13 17 -23 34 -23 38 0 4 -25 38
-55 76 -30 38 -65 86 -77 107 -12 21 -40 59 -62 85 -55 63 -60 68 -91 119 -44
71 -190 203 -156 142z m205 -1939 c3 -8 2 -12 -4 -9 -6 3 -10 10 -10 16 0 14
7 11 14 -7z"/>
<path d="M2240 2872 c6 -13 14 -21 18 -18 3 4 -2 14 -12 24 -18 16 -18 16 -6
-6z"/>
<path d="M1965 2260 c-4 -6 -3 -16 3 -22 13 -13 23 4 13 21 -7 10 -10 10 -16
1z"/>
</g>
</svg>
